<svg xmlns="http://www.w3.org/2000/svg" width="537.722" height="123.4" viewBox="0 0 537.722 123.4"><g transform="translate(0.4 0.4)"><path d="M261.66,325.557a61.272,61.272,0,1,1-61.276-61.268A61.281,61.281,0,0,1,261.66,325.557Z" transform="translate(-139.117 -264.289)" fill="#fff" stroke="#003a8a" stroke-miterlimit="10" stroke-width="0.8"/><g transform="translate(4.138 3.775)"><path d="M172.709,345.027c0-.294-.043-.579-.043-.876a47.246,47.246,0,0,1,94.493,0c0,.3-.036.582-.042.876h1.049c.006-.294.045-.579.045-.876a48.3,48.3,0,0,0-96.594,0c0,.3.04.582.045.876Z" transform="translate(-163.143 -287.382)" fill="#df2a54"/><path d="M167.584,341.886c-.006-.294-.046-.579-.046-.876a49.238,49.238,0,0,1,98.477,0c0,.3-.039.582-.042.876h1.049c0-.294.045-.579.045-.876a50.287,50.287,0,0,0-100.575,0c0,.3.04.582.045.876Z" transform="translate(-160.007 -284.242)" fill="#df2a54"/><path d="M162.24,338.616c-.006-.294-.045-.579-.045-.876a51.31,51.31,0,1,1,102.621,0c0,.3-.039.582-.042.876h1.049c0-.294.045-.579.045-.876a52.36,52.36,0,0,0-104.719,0c0,.3.04.582.046.876Z" transform="translate(-156.737 -280.972)" fill="#df2a54"/><path d="M156.67,335.208c-.006-.294-.043-.579-.043-.876a53.469,53.469,0,1,1,106.939,0c0,.3-.04.582-.043.876h1.049c0-.294.046-.579.046-.876a54.52,54.52,0,0,0-109.04,0c0,.3.04.582.045.876Z" transform="translate(-153.328 -277.563)" fill="#df2a54"/><path d="M150.873,331.661c-.006-.294-.045-.579-.045-.876a55.722,55.722,0,1,1,111.443,0c0,.3-.042.582-.045.876h1.052c0-.294.043-.579.043-.876a56.77,56.77,0,0,0-113.539,0c0,.3.04.582.043.876Z" transform="translate(-149.781 -274.016)" fill="#df2a54"/></g><path d="M262.637,428.223a55.314,55.314,0,0,0,.521-6.989H149.695a57.242,57.242,0,0,0,.607,7.365l3.332.276s1.322,9.168,2.349,10.187l-2.671,1.273a55.963,55.963,0,0,0,5.757,11.218l2.935-1.14c.585,1.895,8.516,10.333,8.516,10.333l-2.113,1.571a56.974,56.974,0,0,0,14.146,9.286l.594-2.853c1.174,1.022,14.977,4.8,14.977,4.8l-.212,2.65a56.63,56.63,0,0,0,8.51.7,57.732,57.732,0,0,0,7.749-.582l.109-2.765s11.891-2.911,14.977-4.948l.846,3.117a57.059,57.059,0,0,0,14.071-9.162l-2.143-2.25c1.907-2.037,8.814-10.041,8.814-10.041l2.8,1.516a55.744,55.744,0,0,0,6.179-12.212l-3.55-1.091a31.656,31.656,0,0,0,2.349-9.9Z" transform="translate(-145.59 -360.327)" fill="#003a8a" fill-rule="evenodd"/><path d="M269.305,346.995a47.247,47.247,0,1,1-47.251-47.3A47.277,47.277,0,0,1,269.305,346.995Z" transform="translate(-160.96 -285.955)" fill="#fff"/><path d="M271.517,350.946A43.513,43.513,0,1,1,228,307.43,43.519,43.519,0,0,1,271.517,350.946Z" transform="translate(-166.883 -290.688)" fill="#00a2e1"/><g transform="translate(17.612 16.884)"><path d="M297.168,307.8s-21.535,15.426-3.2,38.274c0,0,17.318,17.612,40.893,2.911" transform="translate(-246.961 -307.797)" fill="none" stroke="#fff" stroke-miterlimit="10" stroke-width="0.5"/><path d="M357.394,350.792c.864,3.284-.746,5.946-3.593,5.943s-5.845-2.677-6.7-5.964.746-5.948,3.59-5.943S356.536,347.505,357.394,350.792Z" transform="translate(-283.857 -330.457)" fill="none" stroke="#fff" stroke-miterlimit="10" stroke-width="0.5"/><path d="M250.9,335.93s-35.363-28.378-61.34,11.133" transform="translate(-187.598 -318.977)" fill="none" stroke="#fff" stroke-miterlimit="10" stroke-width="0.5"/><path d="M252.907,359.733s-47.09-6.416-59.97,44.665" transform="translate(-189.663 -339.42)" fill="none" stroke="#fff" stroke-miterlimit="10" stroke-width="0.5"/><path d="M265.6,370.047s-30.779,19.428-55.227,48.461" transform="translate(-200.334 -345.889)" fill="none" stroke="#fff" stroke-miterlimit="10" stroke-width="0.5"/><path d="M280.948,375.508s3.62,35.645-53.136,53.764" transform="translate(-211.004 -349.231)" fill="none" stroke="#fff" stroke-miterlimit="10" stroke-width="0.5"/><path d="M339.768,370.609s20.083,40.6-21.393,63.742" transform="translate(-266.422 -346.233)" fill="none" stroke="#fff" stroke-miterlimit="10" stroke-width="0.5"/><path d="M225.432,324.484s-18.992,72.037,64.178,62.65" transform="translate(-208.405 -318.008)" fill="none" stroke="#fff" stroke-miterlimit="10" stroke-width="0.5"/><path d="M184.5,384.672s2.183,58.5,64.4,54.137" transform="translate(-184.5 -354.839)" fill="none" stroke="#fff" stroke-miterlimit="10" stroke-width="0.5"/><path d="M373.992,360.2s8.977,2.3,12.033,7.1" transform="translate(-300.455 -339.861)" fill="none" stroke="#fff" stroke-miterlimit="10" stroke-width="0.5"/><line y1="4.584" x2="3.711" transform="translate(71.381 11.497)" fill="none" stroke="#fff" stroke-miterlimit="10" stroke-width="0.5"/><path d="M345.325,324.082s-2.62-10.7-8.95-13.1" transform="translate(-277.436 -309.747)" fill="none" stroke="#fff" stroke-miterlimit="10" stroke-width="0.5"/></g><g transform="translate(41.815 84.516)"><path d="M248.483,489.205v4.239h-1.616V482.435q1.833-.077,2.216-.076,5.162,0,5.16,3.208,0,3.715-4.563,3.714C249.5,489.281,249.1,489.254,248.483,489.205Zm0-5.418v4.066c.685.049,1.049.073,1.085.073q3.011,0,3.011-2.2,0-2.015-3.214-2.016A7.364,7.364,0,0,0,248.483,483.787Z" transform="translate(-246.867 -482.247)" fill="#fff"/><path d="M268.088,505.484a1.21,1.21,0,0,1,.858.328,1.045,1.045,0,0,1,.355.794,1.063,1.063,0,0,1-.355.8,1.27,1.27,0,0,1-1.716,0,1.063,1.063,0,0,1-.355-.8,1.045,1.045,0,0,1,.355-.794A1.216,1.216,0,0,1,268.088,505.484Z" transform="translate(-259.11 -496.398)" fill="#fff"/><path d="M287.474,483.907v9.656h-1.616v-9.656h-3.772v-1.352h9.329v1.352Z" transform="translate(-268.418 -482.367)" fill="#fff"/><path d="M308.291,505.484a1.205,1.205,0,0,1,.858.328,1.048,1.048,0,0,1,.358.794,1.066,1.066,0,0,1-.358.8,1.27,1.27,0,0,1-1.716,0,1.063,1.063,0,0,1-.355-.8,1.045,1.045,0,0,1,.355-.794A1.215,1.215,0,0,1,308.291,505.484Z" transform="translate(-283.712 -496.398)" fill="#fff"/><path d="M331.709,482.665l-.539,1.285a4.441,4.441,0,0,0-2.444-.524,2.969,2.969,0,0,0-2.5,1.249,5.175,5.175,0,0,0-.943,3.211,4.643,4.643,0,0,0,.967,3.05,3.4,3.4,0,0,0,5.06.07l.891,1.149a5.119,5.119,0,0,1-3.626,1.3,4.547,4.547,0,0,1-3.656-1.555,6.771,6.771,0,0,1,.088-8.2,4.667,4.667,0,0,1,3.681-1.631A6.374,6.374,0,0,1,331.709,482.665Z" transform="translate(-293.808 -482.07)" fill="#fff"/></g><g transform="translate(41.669 24.157)"><path d="M328.008,333.305a7.3,7.3,0,0,0,2.962-1.167,9.355,9.355,0,0,0-2.914-.74,4.023,4.023,0,0,0-1.816.388.233.233,0,0,0-.154.252c.006.913,0,1.822,0,2.735a1.171,1.171,0,0,1-1.055,1.343,3.549,3.549,0,0,1-1.516.024,1.506,1.506,0,0,1-1.261-1.455c-.043-.449-.006-.9-.006-1.337a7.87,7.87,0,0,0,.928.24,2.317,2.317,0,0,0,1.713-.355,1.141,1.141,0,0,0,.509-.815,10.076,10.076,0,0,1-1.009.243,2.647,2.647,0,0,1-1.37-.173,1.4,1.4,0,0,1-.036-2.507c.206-.085.427-.136.661-.206a2.438,2.438,0,0,0-1.413-.328c0-.43,0-.852,0-1.273a.233.233,0,0,1,.091-.133q.9-.609,1.792-1.216a1.357,1.357,0,0,1,1.486-.058c.379.2.746.431,1.116.646.709.416.84.409,1.492-.079.248-.185.494-.379.755-.558a1.033,1.033,0,0,1,1.055-.112c.33.146.661.3.985.464a3.7,3.7,0,0,0,1.482.409.785.785,0,0,1-.039.139c-.137.249-.252.509-.409.746a1.3,1.3,0,0,1-1.674.652,6.514,6.514,0,0,1-1.334-.479,1.243,1.243,0,0,0-1.58.264,3.538,3.538,0,0,1-.637.455.834.834,0,0,1-.84.048c-.316-.158-.628-.334-.934-.506-.23-.124-.443-.258-.658-.394a.9.9,0,0,0-1.049.061,2.379,2.379,0,0,1,1.2.609c-.142.2-.282.4-.415.594a6.027,6.027,0,0,1,.9.215,6.494,6.494,0,0,1,.837.467c.23-.179.51-.409.806-.612a2.92,2.92,0,0,1,1.661-.658,8.254,8.254,0,0,1,2.086.336c.437.112.864.251,1.3.373a.19.19,0,0,1,.161.215c-.006,1.7,0,3.4-.006,5.1a.435.435,0,0,1-.1.252,4.084,4.084,0,0,1-.316.33,1.321,1.321,0,0,1-1.813.221,3.223,3.223,0,0,1-1.625-2.477A.852.852,0,0,1,328.008,333.305Zm3.2-.719a4.489,4.489,0,0,0-.5.467.356.356,0,0,0-.009.306.278.278,0,0,0,.358.2c.072-.024.136-.155.148-.248C331.222,333.09,331.207,332.862,331.207,332.586Z" transform="translate(-292.836 -326.555)" fill="#fff" fill-rule="evenodd"/><path d="M285.7,331.983v-.991c0-.591-.006-1.182.006-1.774a.665.665,0,0,1,.115-.379,5.451,5.451,0,0,1,3.432-2.159,7.025,7.025,0,0,1,3.2.085,4.515,4.515,0,0,1,2.4,1.6,1.87,1.87,0,0,1,.33,2,2.274,2.274,0,0,1-1.867,1.428,3.515,3.515,0,0,1-1.6-.134,1.366,1.366,0,0,1-.5-2.168,1.323,1.323,0,0,1,1.182-.3,2.441,2.441,0,0,1,.643.2.382.382,0,0,1,.248.37.32.32,0,0,0,.3.327,1.807,1.807,0,0,0,.5,0,.3.3,0,0,0,.2-.506,1.352,1.352,0,0,0-.388-.343,4.9,4.9,0,0,0-2.049-.634,10.673,10.673,0,0,0-3.135.124,5.157,5.157,0,0,0-1.834.837,2.672,2.672,0,0,0,.267-.018,3.474,3.474,0,0,1,1.595.164,1.7,1.7,0,0,1,1.213,1.7,2.223,2.223,0,0,1-.858,1.81c-.167.149-.349.282-.525.421a.958.958,0,0,0,1.3.249,7.8,7.8,0,0,0,1.113-.837,3.338,3.338,0,0,1,2.38-.87,2.143,2.143,0,0,1,1.956,1.683,2,2,0,0,1-1.913,2.3,4.192,4.192,0,0,1-.919-.149,1,1,0,0,1-.682-.927,3.822,3.822,0,0,1-.006-.416c0-.494.552-.809.982-.867.146-.015.309-.073.376.17.015.066.221.127.33.112.085-.009.225-.149.218-.215a.459.459,0,0,0-.2-.324,1.353,1.353,0,0,0-1.425.13,4.731,4.731,0,0,0-.628.694,3.019,3.019,0,0,0-.267.449,2.544,2.544,0,0,1-2.271,1.349,3.323,3.323,0,0,1-2.626-1.064,1.875,1.875,0,0,1-.594-1.431c.009-.224,0-.449,0-.733h.94a4.134,4.134,0,0,0,1.522-.243,1.758,1.758,0,0,0,.612-.391c.264-.282.146-.61-.239-.64a6.266,6.266,0,0,0-1.283.018C286.744,331.755,286.231,331.883,285.7,331.983Z" transform="translate(-270.484 -326.537)" fill="#fff" fill-rule="evenodd"/><path d="M251.328,327.485c-.185.346-.348.7-.552,1.037a1.042,1.042,0,0,1-1.373.573,1.8,1.8,0,0,1-.394-.13,1.253,1.253,0,0,0-1.871.782c.321-.045.64-.1.964-.133a3.5,3.5,0,0,1,1.4.115,1.7,1.7,0,0,1,1.249,1.7,1.933,1.933,0,0,1-.822,1.61c-.146.121-.3.227-.5.379a3.574,3.574,0,0,0,.473.328,4.5,4.5,0,0,0,1.737.37,6.156,6.156,0,0,0,2.42-.24,1.412,1.412,0,0,0,1.046-1.016.644.644,0,0,0-.358-.858,2.624,2.624,0,0,0-1.886-.209c-.343.058-.679.149-1.049.234v-.24c0-1.058.018-2.119-.009-3.177a1.268,1.268,0,0,1,.455-1.061c.361-.309.761-.585,1.146-.867a.528.528,0,0,1,.579-.045c.258.13.528.249.785.385a3.346,3.346,0,0,0,1.349.428,4.207,4.207,0,0,1-.725,1.595c-.224.258-.512.167-.776.13a5.794,5.794,0,0,1-.561-.182,2.305,2.305,0,0,0-.676-.133c-.491.027-.761.321-.87.87.327-.052.652-.121.979-.152a2.311,2.311,0,0,1,2.553,1.889,3.767,3.767,0,0,1-2.228,4.251,5.194,5.194,0,0,1-2.159.479,7.948,7.948,0,0,1-2.722-.315,3.3,3.3,0,0,1-2.365-2.408c-.039-.145-.052-.3-.082-.476.137-.012.249-.027.361-.027a6.746,6.746,0,0,0,1.922-.237,3.451,3.451,0,0,0,.688-.318.414.414,0,0,0,.23-.458c-.045-.2-.224-.252-.406-.279a5.937,5.937,0,0,0-2.013.164c-.249.045-.494.118-.764.185,0-.073-.012-.143-.012-.209,0-1.11.006-2.219,0-3.326a1,1,0,0,1,.282-.733,5.358,5.358,0,0,1,1.625-1.122.778.778,0,0,1,.443-.024,1.527,1.527,0,0,1,.388.133c.333.149.655.322,1,.443S250.931,327.379,251.328,327.485Z" transform="translate(-246.492 -326.56)" fill="#fff" fill-rule="evenodd"/><ellipse cx="1.146" cy="1.146" rx="1.146" ry="1.146" transform="translate(10.323 7.28)" fill="#fff"/><path d="M314.058,346.443a1.146,1.146,0,1,1-1.146-1.146A1.145,1.145,0,0,1,314.058,346.443Z" transform="translate(-286.435 -338.017)" fill="#fff"/></g><path d="M175.5,343.422l65.781,24.449-9.317,9.9,36.964,22.266-59.666-23.282,8.877-8.88Z" transform="translate(-161.381 -312.712)" fill="#f27c00"/><g transform="translate(150.021 27.665)"><path d="M11.421-28.613,7.363-40.3H7.286q.163,2.6.163,4.882v6.806H5.372V-42.608H8.6l3.886,11.133h.057l4-11.133h3.235v13.995h-2.2v-6.921q0-1.043.053-2.719t.091-2.029h-.077l-4.2,11.669Zm14.052,0h-2.25V-39.2h2.25ZM23.09-42a1.246,1.246,0,0,1,.33-.929,1.287,1.287,0,0,1,.943-.325,1.259,1.259,0,0,1,.924.325,1.246,1.246,0,0,1,.33.929,1.222,1.222,0,0,1-.33.9,1.249,1.249,0,0,1-.924.33,1.276,1.276,0,0,1-.943-.33A1.222,1.222,0,0,1,23.09-42ZM38-28.613H35.745v-6.509a2.849,2.849,0,0,0-.493-1.828,1.906,1.906,0,0,0-1.565-.6,2.489,2.489,0,0,0-2.087.842,4.651,4.651,0,0,0-.661,2.824v5.274H28.69V-39.2h1.761l.316,1.388h.115a3.132,3.132,0,0,1,1.359-1.168,4.555,4.555,0,0,1,1.953-.412q3.81,0,3.81,3.877Zm5.38,0h-2.25V-39.2h2.25ZM41-42a1.246,1.246,0,0,1,.33-.929,1.287,1.287,0,0,1,.943-.325,1.259,1.259,0,0,1,.924.325,1.245,1.245,0,0,1,.33.929,1.222,1.222,0,0,1-.33.9,1.249,1.249,0,0,1-.924.33,1.276,1.276,0,0,1-.943-.33A1.222,1.222,0,0,1,41-42ZM53.712-31.628a2.77,2.77,0,0,1-1.13,2.379,5.409,5.409,0,0,1-3.235.828,7.643,7.643,0,0,1-3.4-.641v-1.943a8.343,8.343,0,0,0,3.475.862q2.077,0,2.077-1.254a.993.993,0,0,0-.23-.67,2.719,2.719,0,0,0-.756-.555,13.015,13.015,0,0,0-1.465-.651,6.775,6.775,0,0,1-2.474-1.417,2.621,2.621,0,0,1-.646-1.838,2.414,2.414,0,0,1,1.1-2.111,5.2,5.2,0,0,1,2.982-.751,8.445,8.445,0,0,1,3.532.756l-.728,1.694a7.856,7.856,0,0,0-2.881-.708q-1.78,0-1.78,1.015a1.021,1.021,0,0,0,.464.842,10.21,10.21,0,0,0,2.025.948,9.256,9.256,0,0,1,1.9.929,2.775,2.775,0,0,1,.881.972A2.812,2.812,0,0,1,53.712-31.628Zm6.375,1.388a5.471,5.471,0,0,0,1.646-.258V-28.8a4.541,4.541,0,0,1-.962.273,6.628,6.628,0,0,1-1.22.11q-3.2,0-3.2-3.37V-37.5H54.909v-1l1.551-.823.766-2.24h1.388V-39.2h3.015v1.7H58.614v5.667a1.59,1.59,0,0,0,.407,1.2A1.483,1.483,0,0,0,60.088-30.24Zm9.132-9.151a5.415,5.415,0,0,1,1.12.1l-.22,2.1a4.252,4.252,0,0,0-1-.115,2.881,2.881,0,0,0-2.187.881,3.183,3.183,0,0,0-.838,2.288v5.533H63.85V-39.2h1.761l.3,1.867h.115a4.2,4.2,0,0,1,1.374-1.5A3.265,3.265,0,0,1,69.22-39.391Zm1.474.191h2.451l2.154,6a11.389,11.389,0,0,1,.651,2.412h.077a10.064,10.064,0,0,1,.316-1.278q.23-.751,2.431-7.136H81.2L76.677-27.206q-1.235,3.3-4.116,3.3a6.478,6.478,0,0,1-1.455-.163v-1.78a5.272,5.272,0,0,0,1.158.115,2.372,2.372,0,0,0,2.288-1.886l.392-1Zm26.6,5.274a5.778,5.778,0,0,1-1.331,4.049,4.767,4.767,0,0,1-3.7,1.455,5.076,5.076,0,0,1-2.623-.67,4.424,4.424,0,0,1-1.752-1.924,6.553,6.553,0,0,1-.613-2.91,5.74,5.74,0,0,1,1.321-4.02,4.79,4.79,0,0,1,3.724-1.445,4.664,4.664,0,0,1,3.638,1.479A5.713,5.713,0,0,1,97.3-33.925Zm-7.706,0q0,3.666,2.709,3.666,2.68,0,2.68-3.666,0-3.628-2.7-3.628a2.3,2.3,0,0,0-2.053.938A4.774,4.774,0,0,0,89.59-33.925Zm15.6-3.571h-2.585v8.883h-2.259V-37.5H98.607v-1.053l1.742-.689v-.689a3.852,3.852,0,0,1,.881-2.781,3.6,3.6,0,0,1,2.69-.9,7.178,7.178,0,0,1,2.336.392l-.593,1.7a5.186,5.186,0,0,0-1.589-.268,1.293,1.293,0,0,0-1.115.474,2.387,2.387,0,0,0-.349,1.422v.689h2.585Zm16.4-.881a4.081,4.081,0,0,1-1.436,3.36,6.326,6.326,0,0,1-4.087,1.168h-1.455v5.236h-2.288V-42.608h4.03a6.1,6.1,0,0,1,3.929,1.072A3.849,3.849,0,0,1,121.591-38.377Zm-6.978,2.6h1.216a4.356,4.356,0,0,0,2.585-.613,2.23,2.23,0,0,0,.823-1.915,2.172,2.172,0,0,0-.737-1.8,3.64,3.64,0,0,0-2.3-.593h-1.589Zm18.925,1.847a5.778,5.778,0,0,1-1.331,4.049,4.767,4.767,0,0,1-3.7,1.455,5.076,5.076,0,0,1-2.623-.67,4.424,4.424,0,0,1-1.752-1.924,6.553,6.553,0,0,1-.613-2.91,5.74,5.74,0,0,1,1.321-4.02,4.79,4.79,0,0,1,3.724-1.445,4.664,4.664,0,0,1,3.638,1.479A5.713,5.713,0,0,1,133.537-33.925Zm-7.706,0q0,3.666,2.709,3.666,2.68,0,2.68-3.666,0-3.628-2.7-3.628a2.3,2.3,0,0,0-2.053.938A4.774,4.774,0,0,0,125.831-33.925Zm17.4,2.3a2.77,2.77,0,0,1-1.13,2.379,5.409,5.409,0,0,1-3.235.828,7.642,7.642,0,0,1-3.4-.641v-1.943a8.343,8.343,0,0,0,3.475.862q2.077,0,2.077-1.254a.993.993,0,0,0-.23-.67,2.718,2.718,0,0,0-.756-.555,13.015,13.015,0,0,0-1.465-.651,6.775,6.775,0,0,1-2.474-1.417,2.621,2.621,0,0,1-.646-1.838,2.414,2.414,0,0,1,1.1-2.111,5.2,5.2,0,0,1,2.982-.751,8.445,8.445,0,0,1,3.532.756l-.728,1.694a7.856,7.856,0,0,0-2.881-.708q-1.78,0-1.78,1.015a1.021,1.021,0,0,0,.464.842,10.209,10.209,0,0,0,2.025.948,9.256,9.256,0,0,1,1.9.929,2.775,2.775,0,0,1,.881.972A2.812,2.812,0,0,1,143.234-31.628Zm6.375,1.388a5.471,5.471,0,0,0,1.646-.258V-28.8a4.541,4.541,0,0,1-.962.273,6.629,6.629,0,0,1-1.221.11q-3.2,0-3.2-3.37V-37.5H144.43v-1l1.551-.823.766-2.24h1.388V-39.2h3.015v1.7h-3.015v5.667a1.59,1.59,0,0,0,.407,1.2A1.483,1.483,0,0,0,149.609-30.24Zm15.479,1.627-.45-1.474h-.077a4.337,4.337,0,0,1-1.541,1.316,4.874,4.874,0,0,1-1.991.349,3.37,3.37,0,0,1-2.436-.842,3.152,3.152,0,0,1-.876-2.384,2.8,2.8,0,0,1,1.216-2.47,7.01,7.01,0,0,1,3.7-.909l1.828-.057v-.565a2.141,2.141,0,0,0-.474-1.517,1.933,1.933,0,0,0-1.469-.5,5.08,5.08,0,0,0-1.56.239,11.772,11.772,0,0,0-1.436.565l-.728-1.608a7.83,7.83,0,0,1,1.886-.684,8.679,8.679,0,0,1,1.934-.235,4.579,4.579,0,0,1,3.049.881,3.448,3.448,0,0,1,1.029,2.766v7.131Zm-3.35-1.532a2.787,2.787,0,0,0,1.967-.684,2.481,2.481,0,0,0,.742-1.919v-.919l-1.359.057a4.651,4.651,0,0,0-2.312.531,1.614,1.614,0,0,0-.723,1.45,1.415,1.415,0,0,0,.421,1.1A1.809,1.809,0,0,0,161.737-30.144Zm17.412,1.532h-2.259v-6.509a2.849,2.849,0,0,0-.493-1.828,1.905,1.905,0,0,0-1.565-.6,2.489,2.489,0,0,0-2.087.842,4.651,4.651,0,0,0-.661,2.824v5.274h-2.25V-39.2H171.6l.316,1.388h.115a3.132,3.132,0,0,1,1.359-1.168,4.555,4.555,0,0,1,1.953-.412q3.81,0,3.81,3.877Zm6.7.191a3.688,3.688,0,0,1-3.092-1.436,6.454,6.454,0,0,1-1.11-4.03,6.475,6.475,0,0,1,1.125-4.054,3.723,3.723,0,0,1,3.116-1.45,3.65,3.65,0,0,1,3.178,1.541h.115a13.484,13.484,0,0,1-.163-1.8v-3.858h2.259v14.895h-1.761L189.124-30h-.105A3.6,3.6,0,0,1,185.85-28.421Zm.6-1.819a2.448,2.448,0,0,0,2.02-.78,4.107,4.107,0,0,0,.651-2.532v-.316a4.745,4.745,0,0,0-.651-2.843,2.415,2.415,0,0,0-2.039-.842,2.069,2.069,0,0,0-1.828.962,4.93,4.93,0,0,0-.641,2.743,4.807,4.807,0,0,0,.622,2.685A2.1,2.1,0,0,0,186.454-30.24Zm18.207,1.627h-2.288V-40.645h-4.116v-1.962h10.52v1.962H204.66Zm9.276.191a5.121,5.121,0,0,1-3.862-1.441,5.469,5.469,0,0,1-1.393-3.968,6,6,0,0,1,1.292-4.078,4.464,4.464,0,0,1,3.551-1.484,4.363,4.363,0,0,1,3.312,1.273,4.865,4.865,0,0,1,1.216,3.5V-33.4H211a3.478,3.478,0,0,0,.833,2.369,2.9,2.9,0,0,0,2.211.828,8.163,8.163,0,0,0,1.747-.177,9.157,9.157,0,0,0,1.737-.589v1.828a6.907,6.907,0,0,1-1.666.555A10.214,10.214,0,0,1,213.936-28.421Zm-.412-9.266a2.26,2.26,0,0,0-1.718.68,3.24,3.24,0,0,0-.771,1.981h4.805a2.931,2.931,0,0,0-.632-1.986A2.161,2.161,0,0,0,213.524-37.687Zm9.333,9.075h-2.25V-43.507h2.25Zm7.84.191a5.121,5.121,0,0,1-3.862-1.441,5.469,5.469,0,0,1-1.393-3.968,6,6,0,0,1,1.292-4.078,4.463,4.463,0,0,1,3.551-1.484,4.363,4.363,0,0,1,3.312,1.273,4.865,4.865,0,0,1,1.216,3.5V-33.4h-7.055a3.477,3.477,0,0,0,.833,2.369,2.9,2.9,0,0,0,2.211.828,8.164,8.164,0,0,0,1.747-.177,9.158,9.158,0,0,0,1.737-.589v1.828a6.906,6.906,0,0,1-1.666.555A10.214,10.214,0,0,1,230.7-28.421Zm-.412-9.266a2.26,2.26,0,0,0-1.718.68,3.239,3.239,0,0,0-.771,1.981H232.6a2.931,2.931,0,0,0-.632-1.986A2.161,2.161,0,0,0,230.286-37.687Zm11.353,9.266a4.635,4.635,0,0,1-3.652-1.4,5.859,5.859,0,0,1-1.249-4.025,5.892,5.892,0,0,1,1.307-4.107,4.847,4.847,0,0,1,3.776-1.436,7.077,7.077,0,0,1,3.015.622l-.68,1.809a6.813,6.813,0,0,0-2.355-.555q-2.747,0-2.747,3.647a4.368,4.368,0,0,0,.684,2.676,2.369,2.369,0,0,0,2.005.9,5.754,5.754,0,0,0,2.843-.747v1.962a4.443,4.443,0,0,1-1.288.507A7.726,7.726,0,0,1,241.639-28.421Zm14.828-5.5a5.778,5.778,0,0,1-1.331,4.049,4.767,4.767,0,0,1-3.7,1.455,5.075,5.075,0,0,1-2.623-.67,4.424,4.424,0,0,1-1.752-1.924,6.554,6.554,0,0,1-.613-2.91,5.739,5.739,0,0,1,1.321-4.02,4.79,4.79,0,0,1,3.724-1.445,4.664,4.664,0,0,1,3.638,1.479A5.713,5.713,0,0,1,256.466-33.925Zm-7.706,0q0,3.666,2.709,3.666,2.68,0,2.68-3.666,0-3.628-2.7-3.628a2.3,2.3,0,0,0-2.053.938A4.774,4.774,0,0,0,248.761-33.925Zm19.212,5.313h-2.259v-6.528a2.96,2.96,0,0,0-.459-1.814,1.7,1.7,0,0,0-1.436-.6,2.19,2.19,0,0,0-1.91.847,4.971,4.971,0,0,0-.608,2.819v5.274h-2.25V-39.2h1.761l.316,1.388h.115a2.933,2.933,0,0,1,1.278-1.168,4.121,4.121,0,0,1,1.843-.412q2.441,0,3.236,1.666h.153a3.228,3.228,0,0,1,1.321-1.225,4.192,4.192,0,0,1,1.953-.44,3.556,3.556,0,0,1,2.762.957,4.24,4.24,0,0,1,.866,2.92v6.9H272.4v-6.528a2.938,2.938,0,0,0-.464-1.814,1.71,1.71,0,0,0-1.441-.6,2.233,2.233,0,0,0-1.919.818,4.219,4.219,0,0,0-.608,2.513Zm18.743,0h-2.259v-6.528a2.96,2.96,0,0,0-.46-1.814,1.7,1.7,0,0,0-1.436-.6,2.19,2.19,0,0,0-1.91.847,4.97,4.97,0,0,0-.608,2.819v5.274h-2.25V-39.2h1.761l.316,1.388h.115a2.933,2.933,0,0,1,1.278-1.168,4.121,4.121,0,0,1,1.843-.412q2.441,0,3.236,1.666h.153a3.228,3.228,0,0,1,1.321-1.225,4.192,4.192,0,0,1,1.953-.44,3.556,3.556,0,0,1,2.762.957,4.239,4.239,0,0,1,.866,2.92v6.9h-2.25v-6.528a2.937,2.937,0,0,0-.464-1.814,1.709,1.709,0,0,0-1.441-.6,2.233,2.233,0,0,0-1.919.818,4.218,4.218,0,0,0-.608,2.513Zm17.288,0L303.687-30h-.115a3.191,3.191,0,0,1-1.335,1.158,4.465,4.465,0,0,1-1.977.421,3.88,3.88,0,0,1-2.872-.957,3.968,3.968,0,0,1-.948-2.9V-39.2h2.269v6.528a2.832,2.832,0,0,0,.5,1.824,1.9,1.9,0,0,0,1.56.608,2.484,2.484,0,0,0,2.082-.847,4.668,4.668,0,0,0,.665-2.838V-39.2h2.259v10.587Zm14.292,0h-2.259v-6.509a2.849,2.849,0,0,0-.493-1.828,1.906,1.906,0,0,0-1.565-.6,2.489,2.489,0,0,0-2.087.842,4.651,4.651,0,0,0-.661,2.824v5.274h-2.249V-39.2h1.761l.316,1.388h.115a3.132,3.132,0,0,1,1.359-1.168,4.555,4.555,0,0,1,1.953-.412q3.81,0,3.81,3.877Zm5.38,0h-2.249V-39.2h2.249ZM321.291-42a1.245,1.245,0,0,1,.33-.929,1.287,1.287,0,0,1,.943-.325,1.259,1.259,0,0,1,.924.325,1.246,1.246,0,0,1,.33.929,1.222,1.222,0,0,1-.33.9,1.249,1.249,0,0,1-.924.33,1.276,1.276,0,0,1-.943-.33A1.222,1.222,0,0,1,321.291-42Zm9.869,13.583a4.635,4.635,0,0,1-3.652-1.4,5.859,5.859,0,0,1-1.249-4.025,5.892,5.892,0,0,1,1.307-4.107,4.847,4.847,0,0,1,3.776-1.436,7.077,7.077,0,0,1,3.015.622l-.68,1.809a6.812,6.812,0,0,0-2.355-.555q-2.747,0-2.747,3.647a4.368,4.368,0,0,0,.684,2.676,2.369,2.369,0,0,0,2.005.9,5.754,5.754,0,0,0,2.843-.747v1.962a4.444,4.444,0,0,1-1.288.507A7.727,7.727,0,0,1,331.16-28.421Zm12.061-.191-.45-1.474H342.7a4.337,4.337,0,0,1-1.541,1.316,4.874,4.874,0,0,1-1.991.349,3.369,3.369,0,0,1-2.436-.842,3.152,3.152,0,0,1-.876-2.384,2.8,2.8,0,0,1,1.216-2.47,7.01,7.01,0,0,1,3.7-.909l1.828-.057v-.565a2.14,2.14,0,0,0-.474-1.517,1.932,1.932,0,0,0-1.469-.5,5.08,5.08,0,0,0-1.56.239,11.78,11.78,0,0,0-1.436.565l-.727-1.608a7.829,7.829,0,0,1,1.886-.684,8.68,8.68,0,0,1,1.934-.235,4.58,4.58,0,0,1,3.049.881,3.448,3.448,0,0,1,1.029,2.766v7.131Zm-3.35-1.532a2.787,2.787,0,0,0,1.967-.684,2.481,2.481,0,0,0,.742-1.919v-.919l-1.359.057a4.651,4.651,0,0,0-2.312.531,1.614,1.614,0,0,0-.723,1.45,1.415,1.415,0,0,0,.421,1.1A1.81,1.81,0,0,0,339.871-30.144Zm12.042-.1a5.471,5.471,0,0,0,1.646-.258V-28.8a4.543,4.543,0,0,1-.962.273,6.628,6.628,0,0,1-1.22.11q-3.2,0-3.2-3.37V-37.5h-1.445v-1l1.551-.823.766-2.24h1.388V-39.2h3.015v1.7h-3.015v5.667a1.59,1.59,0,0,0,.407,1.2A1.483,1.483,0,0,0,351.913-30.24Zm6.011,1.627h-2.25V-39.2h2.25ZM355.541-42a1.246,1.246,0,0,1,.33-.929,1.287,1.287,0,0,1,.943-.325,1.259,1.259,0,0,1,.924.325,1.246,1.246,0,0,1,.33.929,1.222,1.222,0,0,1-.33.9,1.249,1.249,0,0,1-.924.33,1.276,1.276,0,0,1-.943-.33A1.222,1.222,0,0,1,355.541-42Zm14.99,8.079a5.778,5.778,0,0,1-1.331,4.049,4.768,4.768,0,0,1-3.7,1.455,5.076,5.076,0,0,1-2.623-.67,4.424,4.424,0,0,1-1.752-1.924,6.553,6.553,0,0,1-.613-2.91,5.739,5.739,0,0,1,1.321-4.02,4.79,4.79,0,0,1,3.724-1.445,4.664,4.664,0,0,1,3.638,1.479A5.713,5.713,0,0,1,370.532-33.925Zm-7.706,0q0,3.666,2.709,3.666,2.68,0,2.68-3.666,0-3.628-2.7-3.628a2.3,2.3,0,0,0-2.053.938A4.774,4.774,0,0,0,362.826-33.925Zm19.6,5.313h-2.259v-6.509a2.848,2.848,0,0,0-.493-1.828,1.905,1.905,0,0,0-1.565-.6,2.488,2.488,0,0,0-2.087.842,4.651,4.651,0,0,0-.66,2.824v5.274h-2.25V-39.2h1.761l.316,1.388h.115a3.132,3.132,0,0,1,1.359-1.168,4.555,4.555,0,0,1,1.953-.412q3.81,0,3.81,3.877Zm10.243-3.015a2.77,2.77,0,0,1-1.13,2.379,5.409,5.409,0,0,1-3.235.828,7.643,7.643,0,0,1-3.4-.641v-1.943a8.343,8.343,0,0,0,3.475.862q2.077,0,2.077-1.254a.994.994,0,0,0-.23-.67,2.72,2.72,0,0,0-.756-.555,13.006,13.006,0,0,0-1.465-.651,6.775,6.775,0,0,1-2.475-1.417,2.622,2.622,0,0,1-.646-1.838,2.414,2.414,0,0,1,1.1-2.111,5.2,5.2,0,0,1,2.982-.751,8.446,8.446,0,0,1,3.532.756l-.727,1.694a7.857,7.857,0,0,0-2.881-.708q-1.781,0-1.781,1.015a1.021,1.021,0,0,0,.464.842,10.207,10.207,0,0,0,2.025.948,9.258,9.258,0,0,1,1.9.929,2.774,2.774,0,0,1,.881.972A2.811,2.811,0,0,1,392.673-31.628Z" transform="translate(-5.372 90.959)" fill="#fff"/><path d="M10.69-88.636v15.806q0,2.342,2.927,2.342t2.927-2.342v-1.756h2.927v1.756q0,4.683-5.854,4.683T7.763-72.831V-88.636a2.55,2.55,0,0,0-1.171-1.9v-1.03q0-1.756,2.225-1.756h2.459v2.342H9.285v.141A2.657,2.657,0,0,1,10.69-88.636Zm8.781,12.879H16.544v-8.2q0-5.854,6.322-5.854t6.322,5.854v8.2H26.261v-8.2q0-3.512-3.4-3.512t-3.4,3.512ZM29.188-93.32v2.342H16.544V-93.32Zm8.2,15.56a.555.555,0,0,0,.474-.158.877.877,0,0,0,.111-.5.873.873,0,0,0-.111-.5.62.62,0,0,0-.474-.176Zm-2.342-6.194q0-3.512,2.236-4.952a4.25,4.25,0,0,0-1.651-1.616v-1.042q0-1.756,2.225-1.756H44.76v2.342H38.555v.129a3.58,3.58,0,0,1,1.311,1.089,8.146,8.146,0,0,1,1.124-.047q5.936,0,5.936,5.854v2.342q0,3.512,3.22,3.512,2.81,0,2.81-3.512v-7.025a2.55,2.55,0,0,0-1.171-1.9v-1.03q0-1.756,2.225-1.756h2.459v2.342h-1.99v.141a2.657,2.657,0,0,1,1.4,2.2v7.025q0,5.854-5.737,5.854Q44-75.758,44-81.612v-2.342q0-3.512-3.009-3.512t-3.021,3.512V-81.1a1.671,1.671,0,0,1,1.323.7,3.607,3.607,0,0,1,.433,2.008,2.887,2.887,0,0,1-.609,1.891,2.112,2.112,0,0,1-1.733.743,2.2,2.2,0,0,1-1.733-.685,2.839,2.839,0,0,1-.609-1.949ZM52.956-70.489v-4.1h2.927v6.439H52.956l-1.346-1.171-1.346,1.171H47.921v-6.439h2.342v4.1l1.346-1.171Zm9.366-13.8a.556.556,0,0,0-.474.158.877.877,0,0,0-.111.5.873.873,0,0,0,.111.5.62.62,0,0,0,.474.176Zm2.342,5.479,3.4-3.079,3.4,3.079v-6.9a2.966,2.966,0,0,0-1.37-2.424q-.691.667-3.313.667a7.524,7.524,0,0,1-3.922-.738,2.63,2.63,0,0,1-1.112-2.365,3.29,3.29,0,0,1,.468-1.809,2.706,2.706,0,0,0,.468-1.469q0-.644-1.522-.644v-2.342q4.215,0,4.215,2.225A4.852,4.852,0,0,1,64.9-92.74a4.63,4.63,0,0,0-.468,1.633,1.107,1.107,0,0,0,.486.954,3.677,3.677,0,0,0,1.938.345,3.8,3.8,0,0,0,1.873-.363,1.909,1.909,0,0,1-.784-1.51q0-1.639,2.576-1.639,2.693,0,2.693,1.99a2.317,2.317,0,0,1-1.1,1.733q2.271,1.651,2.271,3.3v10.537H71.244l-3.185-3.185-3.185,3.185H61.737v-5.2a1.671,1.671,0,0,1-1.323-.7,3.607,3.607,0,0,1-.433-2.008,3.607,3.607,0,0,1,.433-2.008q.433-.626,1.908-.626t1.908.626a3.607,3.607,0,0,1,.433,2.008Zm5.831-11.919.363-.258a.441.441,0,0,0,.2-.316q0-.363-.492-.363-.468,0-.468.293a.355.355,0,0,0,.14.281ZM83.045-78.919a.6.6,0,0,0-.468-.176v1.335a.555.555,0,0,0,.474-.158.877.877,0,0,0,.111-.5A.838.838,0,0,0,83.045-78.919Zm.117-2.178a1.671,1.671,0,0,1,1.323.7,3.607,3.607,0,0,1,.433,2.008,2.8,2.8,0,0,1-.609,2.008,2.306,2.306,0,0,1-1.733.626,2.306,2.306,0,0,1-1.733-.626,2.8,2.8,0,0,1-.609-2.008V-88.636a2.55,2.55,0,0,0-1.171-1.9v-1.03q0-1.756,2.225-1.756h2.459v2.342h-1.99v.141a2.657,2.657,0,0,1,1.4,2.2ZM80.411-99.525q.3-.023.574-.023,3.056,0,3.056,2.365,0,2.693-2.576,2.693t-2.576-1.733a1.632,1.632,0,0,1,.439-1.259,2.5,2.5,0,0,1,1.657-.4v1.4q-.222,0-.222.234t.644.234q.644,0,.644-1.171,0-1.054-3.512-1.054a11.957,11.957,0,0,0,.351-1.99q0-.7-.468-.7h-.234V-102.1h.585q1.967,0,1.967,1.3A5.146,5.146,0,0,1,80.411-99.525ZM91.944-88.636v15.806q0,2.342,2.927,2.342T97.8-72.831v-1.756h2.927v1.756q0,4.683-5.854,4.683t-5.854-4.683V-88.636a2.55,2.55,0,0,0-1.171-1.9v-1.03q0-1.756,2.225-1.756h2.459v2.342h-1.99v.141A2.657,2.657,0,0,1,91.944-88.636Zm15.572,0a2.55,2.55,0,0,0-1.171-1.9v-1.03q0-1.756,2.225-1.756h2.459v2.342h-1.99v.141a2.657,2.657,0,0,1,1.4,2.2v7.025q0,5.854-6.322,5.854T97.8-81.612v-7.025a2.549,2.549,0,0,0-1.171-1.9v-1.03q0-1.756,2.225-1.756h2.459v2.342H99.32v.141a2.657,2.657,0,0,1,1.4,2.2v7.025q0,3.512,3.4,3.512t3.4-3.512ZM118.638-77.76a.556.556,0,0,0,.474-.158.877.877,0,0,0,.111-.5.873.873,0,0,0-.111-.5.62.62,0,0,0-.474-.176ZM116.3-83.953q0-3.512,2.236-4.952a4.25,4.25,0,0,0-1.651-1.616v-1.042q0-1.756,2.225-1.756h6.908v2.342h-6.205v.129a3.58,3.58,0,0,1,1.311,1.089,8.146,8.146,0,0,1,1.124-.047q5.936,0,5.936,5.854v2.342q0,3.512,3.22,3.512,2.81,0,2.81-3.512v-7.025a2.55,2.55,0,0,0-1.171-1.9v-1.03q0-1.756,2.225-1.756h2.459v2.342h-1.99v.141a2.657,2.657,0,0,1,1.4,2.2v7.025q0,5.854-5.737,5.854-6.147,0-6.147-5.854v-2.342q0-3.512-3.009-3.512t-3.021,3.512V-81.1a1.671,1.671,0,0,1,1.323.7,3.607,3.607,0,0,1,.433,2.008,2.887,2.887,0,0,1-.609,1.891,2.112,2.112,0,0,1-1.733.743,2.2,2.2,0,0,1-1.733-.685,2.839,2.839,0,0,1-.609-1.949Zm29.036,6.194a.555.555,0,0,0,.474-.158.877.877,0,0,0,.111-.5.873.873,0,0,0-.111-.5.62.62,0,0,0-.474-.176Zm-2.342-9.706q0-5.854,5.362-5.854t5.351,5.854v8.02l2.634-3.477,2.634,3.477v-8.02q0-5.854,5.362-5.854t5.351,5.854v11.708h-2.927V-87.466q0-3.512-2.424-3.512T161.9-87.466v11.708h-3.43l-2.131-2.986-2.131,2.986h-3.43V-87.466q0-3.512-2.424-3.512t-2.435,3.512V-81.1a1.671,1.671,0,0,1,1.323.7,3.607,3.607,0,0,1,.433,2.008,2.887,2.887,0,0,1-.609,1.891,2.112,2.112,0,0,1-1.733.743,2.2,2.2,0,0,1-1.733-.685,2.839,2.839,0,0,1-.609-1.949ZM160.9-99.115q0,.644,1.171.644h5.269a8.738,8.738,0,0,0-4.1-1.288Q160.9-99.759,160.9-99.115Zm6.674-1.452v-2.7h2.107v6.439h-8.2q-2.927,0-2.927-2.342,0-2.927,4.683-2.927A7.046,7.046,0,0,1,167.578-100.567Zm10.3,9.659a.458.458,0,0,0,.386-.129.36.36,0,0,0,.082-.246.443.443,0,0,0-.094-.275.453.453,0,0,0-.375-.123Zm.585,9.3q0,3.512,2.81,3.512,3.22,0,3.22-3.512v-7.025a2.55,2.55,0,0,0-1.171-1.9v-1.03q0-1.756,2.225-1.756h2.459v2.342h-1.99v.141a2.657,2.657,0,0,1,1.4,2.2v7.025q0,3.512,3.22,3.512,2.81,0,2.81-3.512v-7.025a2.55,2.55,0,0,0-1.171-1.9v-1.03q0-1.756,2.225-1.756h2.459v2.342h-1.99v.141a2.657,2.657,0,0,1,1.4,2.2v7.025q0,5.854-5.737,5.854-3.934,0-4.683-1.651-.749,1.651-4.683,1.651-5.737,0-5.737-5.854v-9.659a2.217,2.217,0,0,1,.5-1.417,2.241,2.241,0,0,1,1.838-.632,2.412,2.412,0,0,1,1.955.632,2.217,2.217,0,0,1,.5,1.417,1.985,1.985,0,0,1-.422,1.3,1.808,1.808,0,0,1-1.452.714Zm14.225-20.255a2.383,2.383,0,0,1,1.288.41,3.071,3.071,0,0,0,1.616-1.791l1.37.679a4.683,4.683,0,0,1-2.459,2.693,4.107,4.107,0,0,0-1.7-.351q-.7,0-.7.937,0,.7.585.7.82,0,.82-.059t-.34-.059v-1.171a2.074,2.074,0,0,1,1.54.462,1.482,1.482,0,0,1,.439,1.048q0,1.534-2.459,1.534t-2.459-2.342Q190.233-101.867,192.691-101.867ZM221.107-83.4v2.962q0,4.683-3.747,4.683-2.775,0-3.934-1.464t-2.037-1.464v2.927h-2.927v-7.025h2.927v1.756a4.094,4.094,0,0,1,3.214,1.464,3.422,3.422,0,0,0,2.254,1.464q1.323,0,1.323-2.342v-1.253q-9.718-2.107-9.718-6.943,0-4.683,6.322-4.683t6.322,4.683q0,3.267-3.723,3.267a2.709,2.709,0,0,1-1.663-.48v-2.377a9,9,0,0,0,1.826.422q.632,0,.632-.831,0-2.342-3.4-2.342t-3.4,2.342Q211.389-85.627,221.107-83.4ZM209.984-99.174q0-2.927,4.683-2.927a7.057,7.057,0,0,1,4.391,1.581q2.049,1.581,2.049,2.166v1.522h-8.2Q209.984-96.832,209.984-99.174Zm2.342.059q0,.644,1.171.644h5.269a8.738,8.738,0,0,0-4.1-1.288Q212.326-99.759,212.326-99.115Zm15.221,14.822a.555.555,0,0,0-.474.158.877.877,0,0,0-.111.5.873.873,0,0,0,.111.5.62.62,0,0,0,.474.176Zm2.342,5.479,3.4-3.079,3.4,3.079v-6.9a2.966,2.966,0,0,0-1.37-2.424q-.691.667-3.313.667a7.525,7.525,0,0,1-3.922-.738,2.63,2.63,0,0,1-1.112-2.365,3.29,3.29,0,0,1,.468-1.809,2.705,2.705,0,0,0,.468-1.469q0-.644-1.522-.644v-2.342q4.215,0,4.215,2.225a4.851,4.851,0,0,1-.468,1.867,4.629,4.629,0,0,0-.468,1.633,1.107,1.107,0,0,0,.486.954,3.678,3.678,0,0,0,1.938.345,3.8,3.8,0,0,0,1.873-.363,1.909,1.909,0,0,1-.784-1.51q0-1.639,2.576-1.639,2.693,0,2.693,1.99a2.316,2.316,0,0,1-1.1,1.733q2.271,1.651,2.271,3.3v10.537h-3.138l-3.185-3.185L230.1-75.758h-3.138v-5.2a1.671,1.671,0,0,1-1.323-.7,3.607,3.607,0,0,1-.433-2.008,3.608,3.608,0,0,1,.433-2.008q.433-.626,1.908-.626t1.908.626a3.607,3.607,0,0,1,.433,2.008Zm5.831-11.919.363-.258a.441.441,0,0,0,.2-.316q0-.363-.492-.363-.468,0-.468.293a.355.355,0,0,0,.14.281Zm26.858,7.786q0-.34-.234-.34t-.234.351a.452.452,0,0,0,.468.492Zm.117,2v.5q0,4.683-4.683,4.683t-4.683-4.683v-2.342h2.927v2.342q0,2.342,1.756,2.342t1.756-2.342v-.972q-8.079-2.915-8.079-7.224,0-4.683,6.322-4.683t6.322,4.683q0,3.267-3.723,3.267a2.709,2.709,0,0,1-1.663-.48v-2.494a9,9,0,0,0,1.826.421q.632,0,.632-.714,0-2.342-3.4-2.342t-3.4,2.342q0,3.7,5.152,4.953,0-.972,2.107-.972,2.459,0,2.459,1.464a2.394,2.394,0,0,1-.474,1.756A1.915,1.915,0,0,1,262.694-80.944Zm-2.459,9.87q0,.82.585.82t.585-.82v-3.512h2.927v3.512q0,2.927-3.22,2.927t-3.22-2.927v-3.512h2.342Zm10.537-8.02a.62.62,0,0,0-.474.176.874.874,0,0,0-.111.5.878.878,0,0,0,.111.5.556.556,0,0,0,.474.158Zm-.585-9.542a2.549,2.549,0,0,0-1.171-1.9v-1.03q0-1.756,2.225-1.756H273.7v2.342h-1.99v.141a2.657,2.657,0,0,1,1.4,2.2v10.245a2.8,2.8,0,0,1-.609,2.008,2.306,2.306,0,0,1-1.733.626,2.306,2.306,0,0,1-1.733-.626,2.8,2.8,0,0,1-.609-2.008,3.607,3.607,0,0,1,.433-2.008,1.671,1.671,0,0,1,1.323-.7Zm21.426-4.683v2.342H278.968V-93.32Zm-9.729,12.879a3.411,3.411,0,0,1,2.353-1.171h1.522v2.459h-1.522A2.567,2.567,0,0,0,281.9-77.49v1.733h-2.927v-8.2q0-5.854,6.322-5.854t6.322,5.854v8.2h-2.927v-8.2q0-3.512-3.4-3.512t-3.4,3.512Zm18.51-2.927v1.756q0,3.512,3.4,3.512t3.4-3.512v-1.756Zm6.791-5.269a2.549,2.549,0,0,0-1.171-1.9v-1.03q0-1.756,2.225-1.756H310.7v2.342h-1.99v.141a2.657,2.657,0,0,1,1.4,2.2v7.025q0,5.854-6.322,5.854t-6.322-5.854v-7.025a2.55,2.55,0,0,0-1.171-1.9v-1.03q0-1.756,2.225-1.756h2.459v2.342h-1.99v.141a2.657,2.657,0,0,1,1.4,2.2v2.927h6.791ZM328.61-83.4v2.962q0,4.683-3.747,4.683-2.775,0-3.934-1.464t-2.037-1.464v2.927h-2.927v-7.025h2.927v1.756a4.1,4.1,0,0,1,3.214,1.464A3.422,3.422,0,0,0,324.36-78.1q1.323,0,1.323-2.342v-1.253q-9.718-2.107-9.718-6.943,0-4.683,6.322-4.683t6.322,4.683q0,3.267-3.723,3.267a2.709,2.709,0,0,1-1.663-.48v-2.377a9,9,0,0,0,1.826.422q.632,0,.632-.831,0-2.342-3.4-2.342t-3.4,2.342Q318.893-85.627,328.61-83.4Zm0-9.917h2.81q5.971,0,5.971,4.683v12.879h-2.927V-88.636q0-2.342-3.044-2.342h-2.81Zm27.28,0v2.342H343.246V-93.32Zm-9.729,12.879a3.411,3.411,0,0,1,2.353-1.171h1.522v2.459h-1.522a2.567,2.567,0,0,0-2.342,1.663v1.733h-2.927v-8.2q0-5.854,6.322-5.854t6.322,5.854v8.2h-2.927v-8.2q0-3.512-3.4-3.512t-3.4,3.512Zm18.511-2.927v1.756q0,3.512,3.4,3.512t3.4-3.512v-1.756Zm6.791-5.269a2.55,2.55,0,0,0-1.171-1.9v-1.03q0-1.756,2.224-1.756h2.459v2.342h-1.99v.141a2.657,2.657,0,0,1,1.4,2.2v7.025q0,5.854-6.322,5.854t-6.322-5.854v-7.025a2.55,2.55,0,0,0-1.171-1.9v-1.03q0-1.756,2.225-1.756h2.459v2.342h-1.99v.141a2.657,2.657,0,0,1,1.4,2.2v2.927h6.791ZM392.888-83.4v2.962q0,4.683-3.747,4.683-2.775,0-3.934-1.464t-2.037-1.464v2.927h-2.927v-7.025h2.927v1.756a4.1,4.1,0,0,1,3.214,1.464,3.422,3.422,0,0,0,2.254,1.464q1.323,0,1.323-2.342v-1.253q-9.718-2.107-9.718-6.943,0-4.683,6.322-4.683t6.322,4.683q0,3.267-3.723,3.267a2.71,2.71,0,0,1-1.663-.48v-2.377a9,9,0,0,0,1.827.422q.632,0,.632-.831,0-2.342-3.4-2.342t-3.4,2.342Q383.17-85.627,392.888-83.4ZM389.2-101.867a2.382,2.382,0,0,1,1.288.41,3.071,3.071,0,0,0,1.616-1.791l1.37.679a4.683,4.683,0,0,1-2.459,2.693,4.106,4.106,0,0,0-1.7-.351q-.7,0-.7.937,0,.7.585.7.82,0,.82-.059t-.34-.059v-1.171a2.074,2.074,0,0,1,1.54.462,1.482,1.482,0,0,1,.439,1.048q0,1.534-2.459,1.534t-2.459-2.342Q386.741-101.867,389.2-101.867Z" transform="translate(-6.172 103.271)" fill="#fff"/></g></g></svg>